<svg width="37" height="37" viewBox="0 0 37 37" fill="none" xmlns="http://www.w3.org/2000/svg">
<rect width="37" height="37" rx="4" fill="#2D2D2D"/>
<path d="M28 18H25.52C25.083 17.9991 24.6577 18.1413 24.3091 18.405C23.9606 18.6686 23.708 19.0392 23.59 19.46L21.24 27.82C21.2249 27.8719 21.1933 27.9175 21.15 27.95C21.1067 27.9825 21.0541 28 21 28C20.9459 28 20.8933 27.9825 20.85 27.95C20.8067 27.9175 20.7751 27.8719 20.76 27.82L15.24 8.18C15.2249 8.12807 15.1933 8.08246 15.15 8.05C15.1067 8.01754 15.0541 8 15 8C14.9459 8 14.8933 8.01754 14.85 8.05C14.8067 8.08246 14.7751 8.12807 14.76 8.18L12.41 16.54C12.2925 16.9592 12.0414 17.3285 11.6949 17.592C11.3483 17.8555 10.9253 17.9988 10.49 18H8" stroke="#0082FB" stroke-width="2" stroke-linecap="round" stroke-linejoin="round"/>
</svg>
